<svg width="113" height="223" viewBox="0 0 113 223" fill="none" xmlns="http://www.w3.org/2000/svg">
<path d="M108.926 63.5583L111.912 63.2697L108.926 63.5583ZM68.4014 133.032L67.7637 130.101L68.4014 133.032ZM3.7745 92.5893L6.7394 93.0469L3.7745 92.5893ZM58.7953 59.8632L59.1114 56.8799L58.7953 59.8632ZM83.9739 156.679L81.1111 155.782L83.9739 156.679ZM38.8119 208.088C37.3693 208.903 36.8606 210.733 37.6755 212.175C38.4905 213.618 40.3206 214.127 41.7632 213.312L38.8119 208.088ZM33.3743 211.282C32.9455 212.882 33.8952 214.527 35.4956 214.956L61.5756 221.944C63.176 222.373 64.821 221.423 65.2499 219.823C65.6787 218.222 64.729 216.577 63.1286 216.148L39.9463 209.937L46.158 186.754C46.5868 185.154 45.6371 183.509 44.0367 183.08C42.4363 182.651 40.7913 183.601 40.3625 185.202L33.3743 211.282ZM58.0295 3.66895L57.5358 6.62804C74.9784 9.53832 86.2213 16.5427 93.5187 26.2228C100.885 35.994 104.488 48.8291 105.939 63.8469L108.926 63.5583L111.912 63.2697C110.411 47.7367 106.624 33.6401 98.3098 22.6109C89.9265 11.4905 77.1976 3.82565 58.5232 0.709851L58.0295 3.66895ZM108.926 63.5583L105.939 63.8469C108.014 85.3121 102.344 106.449 88.8789 119.115L90.9343 121.3L92.9898 123.485C108.234 109.146 114.1 85.9096 111.912 63.2697L108.926 63.5583ZM90.9343 121.3L88.8789 119.115C83.2749 124.386 76.2694 128.25 67.7637 130.101L68.4014 133.032L69.0391 135.963C78.6188 133.879 86.6017 129.494 92.9898 123.485L90.9343 121.3ZM68.4014 133.032L67.7637 130.101C53.9584 133.104 37.4054 130.48 24.9251 123.592C12.453 116.708 4.73366 106.044 6.7394 93.0469L3.7745 92.5893L0.809603 92.1318C-1.72569 108.56 8.32222 121.281 22.0257 128.845C35.721 136.404 53.752 139.289 69.0391 135.963L68.4014 133.032ZM3.7745 92.5893L6.7394 93.0469C8.47784 81.7824 15.3165 73.6777 24.8031 68.6201C34.355 63.5278 46.5351 61.5808 58.4791 62.8465L58.7953 59.8632L59.1114 56.8799C46.1941 55.5111 32.7704 57.5732 21.9805 63.3256C11.1253 69.1127 2.88431 78.6883 0.809603 92.1318L3.7745 92.5893ZM58.7953 59.8632L58.4791 62.8465C71.0173 64.1751 78.8251 71.26 83.3596 81.7075C87.9732 92.3374 89.1391 106.403 87.9442 121.056L90.9343 121.3L93.9244 121.544C95.1571 106.427 94.0353 91.2345 88.8635 79.3187C83.6125 67.2204 74.137 58.472 59.1114 56.8799L58.7953 59.8632ZM90.9343 121.3L87.9442 121.056C86.9699 133.005 84.4421 145.146 81.1111 155.782L83.9739 156.679L86.8368 157.576C90.2892 146.552 92.9109 133.973 93.9244 121.544L90.9343 121.3ZM83.9739 156.679L81.1111 155.782C77.1355 168.477 72.271 178.278 65.6157 186.508C58.9604 194.737 50.3936 201.544 38.8119 208.088L40.2875 210.7L41.7632 213.312C53.8038 206.509 63.0259 199.252 70.2811 190.281C77.5362 181.309 82.7037 170.773 86.8368 157.576L83.9739 156.679ZM39.1519 210.395L37.6519 207.797L34.7721 209.46L36.2721 212.058L37.7721 214.656L40.6519 212.993L39.1519 210.395Z" fill="#FFAD7B"/>
</svg>
