<svg width="18" height="19" viewBox="0 0 18 19" fill="none" xmlns="http://www.w3.org/2000/svg">
<mask id="mask0_61_222" style="mask-type:luminance" maskUnits="userSpaceOnUse" x="0" y="0" width="18" height="19">
<path d="M9 18.5C13.9706 18.5 18 14.4706 18 9.5C18 4.52944 13.9706 0.5 9 0.5C4.02944 0.5 0 4.52944 0 9.5C0 14.4706 4.02944 18.5 9 18.5Z" fill="white"/>
</mask>
<g mask="url(#mask0_61_222)">
<path d="M0 0.5H18V18.5H0V0.5Z" fill="#6DA544"/>
<path d="M9 4.02268L16.4355 9.50003L9 14.9774L1.56445 9.50003L9 4.02268Z" fill="#FFDA44"/>
<path d="M6.12419 8.26954C5.94927 8.67185 5.86295 9.10709 5.87107 9.54571L11.5664 11.2965C11.8173 10.9381 11.9898 10.5308 12.0726 10.1012C10.6453 7.80548 7.86443 7.27813 6.12771 8.27306L6.12419 8.26954Z" fill="#EEEEEE"/>
<path d="M8.98945 6.37111C8.47528 6.3724 7.96934 6.5004 7.51641 6.74376C6.89301 7.08011 6.4022 7.61803 6.12422 8.26954C7.1894 8.04336 8.29472 8.09324 9.33521 8.41443C10.3757 8.73562 11.3168 9.31746 12.0691 10.1047C12.2089 9.39297 12.0971 8.6548 11.7527 8.01642C11.4842 7.51775 11.0853 7.10133 10.5987 6.81157C10.112 6.52181 9.55583 6.36957 8.98945 6.37111ZM7.45312 9.30665C6.91665 9.30486 6.38308 9.38549 5.87109 9.54571C5.87701 10.0477 6.00362 10.5409 6.24023 10.9836C6.43494 11.3457 6.69909 11.6658 7.01758 11.9258C7.33608 12.1857 7.70268 12.3803 8.09643 12.4985C8.49018 12.6167 8.90336 12.6562 9.31236 12.6146C9.72136 12.573 10.1182 12.4513 10.4801 12.2563C10.9098 12.0249 11.2794 11.6962 11.5594 11.2965C11.0659 10.6804 10.4413 10.1821 9.73095 9.83788C9.02061 9.49366 8.24245 9.31218 7.45312 9.30665Z" fill="#0052B4"/>
</g>
</svg>
