<svg width="32" height="24" viewBox="0 0 32 24" fill="none" xmlns="http://www.w3.org/2000/svg">
<path d="M26.8798 22.1418C27.1782 22.6617 27.8416 22.8413 28.3615 22.5429C28.8815 22.2445 29.0611 21.5811 28.7627 21.0611L26.8798 22.1418ZM27.8598 23.544C28.4399 23.6953 29.0328 23.3478 29.1841 22.7677L31.65 13.3147C31.8013 12.7346 31.4537 12.1417 30.8736 11.9904C30.2935 11.8391 29.7006 12.1867 29.5493 12.7667L27.3574 21.1694L18.9548 18.9775C18.3747 18.8262 17.7818 19.1738 17.6305 19.7539C17.4792 20.3339 17.8268 20.9269 18.4068 21.0782L27.8598 23.544ZM1.00001 1.53974L0.687091 2.57913C1.95298 2.96024 4.0435 4.03247 6.58659 5.5836C9.09957 7.11635 11.968 9.06255 14.7595 11.1222C17.5517 13.1822 20.2522 15.3449 22.4332 17.3082C24.6471 19.3011 26.225 21.001 26.8798 22.1418L27.8212 21.6015L28.7627 21.0611C27.9179 19.5892 26.0994 17.6875 23.8857 15.6947C21.639 13.6722 18.8807 11.4649 16.0484 9.37522C13.2155 7.28512 10.2939 5.30194 7.71705 3.7302C5.17027 2.17682 2.87103 0.969427 1.31293 0.500346L1.00001 1.53974ZM27.7604 21.8568L26.824 22.4058L27.1974 23.0426L28.1338 22.4937L29.0702 21.9447L28.6969 21.3078L27.7604 21.8568Z" fill="#FFAD7B"/>
</svg>
