<svg width="83" height="147" viewBox="0 0 83 287" fill="none" xmlns="http://www.w3.org/2000/svg">
<path d="M71.5452 280.995L74.0892 279.405L74.0966 279.417L74.1039 279.429L71.5452 280.995ZM76.1979 284.534C75.8103 286.144 74.1902 287.136 72.5793 286.748L46.3286 280.432C44.7178 280.044 43.7261 278.424 44.1138 276.813C44.5014 275.202 46.1215 274.21 47.7324 274.598L71.0663 280.213L76.6813 256.879C77.0689 255.268 78.689 254.277 80.2999 254.664C81.9108 255.052 82.9024 256.672 82.5148 258.283L76.1979 284.534ZM38.5226 2.13322L41.093 3.68019C-46.0086 148.404 59.255 255.671 74.0892 279.405L71.5452 280.995L69.0012 282.585C55.076 260.305 -53.4714 149.168 35.9522 0.586239L38.5226 2.13322ZM71.5452 280.995L74.1039 279.429L75.8399 282.265L73.2812 283.832L70.7224 285.398L68.9864 282.562L71.5452 280.995Z" fill="#FFAD7B"/>
</svg>
