<svg width="24" height="24" viewBox="0 0 32 32" fill="none" xmlns="http://www.w3.org/2000/svg">
<path d="M4.32594 8.10278C5.16247 7.5181 6.4235 7.63023 7.17459 8.25051L6.31314 6.99838C5.61989 6.00967 5.86818 4.93998 6.85778 4.24584C7.84738 3.55436 10.6515 5.41342 10.6515 5.41342C9.95206 4.41492 10.0829 3.14945 11.0814 2.44907C12.0799 1.75137 13.4575 1.99254 14.157 2.99282L23.43 16.0925L22.2482 27.5504L12.3851 23.9533L3.78219 11.1979C3.07648 10.1932 3.32032 8.8076 4.32594 8.10278Z" fill="#B78B60"/>
<path d="M2.39838 15.3904C2.39838 15.3904 1.39098 13.922 2.86025 12.9155C4.32774 11.909 5.33425 13.3765 5.33425 13.3765L10.0073 20.1916C10.1683 19.9228 10.3445 19.6576 10.5412 19.396L4.05542 9.93873C4.05542 9.93873 3.04892 8.47124 4.5173 7.46473C5.98479 6.45822 6.99129 7.92571 6.99129 7.92571L13.0917 16.8223C13.3187 16.6372 13.5509 16.4512 13.7903 16.2688L6.71809 5.95364C6.71809 5.95364 5.71158 4.48615 7.17996 3.47964C8.64745 2.47313 9.65396 3.94062 9.65396 3.94062L16.7262 14.254C16.9861 14.0947 17.2433 13.9567 17.5013 13.8108L10.891 4.17111C10.891 4.17111 9.88445 2.70362 11.3519 1.69712C12.8194 0.690608 13.8259 2.1581 13.8259 2.1581L21.878 13.9016C17.4746 16.922 17.0555 22.6042 19.5713 26.2733C20.0741 27.0075 20.8083 26.5047 20.8083 26.5047C17.7888 22.1005 18.7107 17.1516 23.115 14.1321L21.8166 7.63382C21.8166 7.63382 21.3316 5.9216 23.0429 5.4357C24.7551 4.95069 25.241 6.66291 25.241 6.66291L26.7406 11.1161C27.335 12.8817 27.9678 14.6411 28.8052 16.3053C31.1697 21.0041 29.7574 26.8438 25.2989 29.9025C20.4354 33.237 13.7868 31.9973 10.4513 27.1348L2.39838 15.3904Z" fill="#D4AB88"/>
<path d="M10.6791 28.4777C7.11942 28.4777 3.52234 24.8806 3.52234 21.3209C3.52234 20.8287 3.16192 20.431 2.66979 20.431C2.17766 20.431 1.74248 20.8287 1.74248 21.3209C1.74248 26.6604 5.33957 30.2575 10.6791 30.2575C11.1713 30.2575 11.5691 29.8224 11.5691 29.3302C11.5691 28.8381 11.1713 28.4777 10.6791 28.4777Z" fill="#5DADEC"/>
<path d="M6.22949 30.2201C3.55971 30.2201 1.77985 28.4403 1.77985 25.7705C1.77985 25.2784 1.38206 24.8806 0.889927 24.8806C0.397797 24.8806 0 25.2784 0 25.7705C0 29.3302 2.66978 32 6.22949 32C6.72162 32 7.11942 31.6022 7.11942 31.1101C7.11942 30.6179 6.72162 30.2201 6.22949 30.2201ZM21.3583 1.74248C20.867 1.74248 20.4683 2.14117 20.4683 2.63241C20.4683 3.12365 20.867 3.52234 21.3583 3.52234C24.918 3.52234 28.4777 6.71629 28.4777 10.6418C28.4777 11.133 28.8764 11.5317 29.3676 11.5317C29.8588 11.5317 30.2575 11.133 30.2575 10.6418C30.2575 5.7347 26.6978 1.74248 21.3583 1.74248Z" fill="#5DADEC"/>
<path d="M25.8079 0C25.3166 0 24.918 0.36131 24.918 0.85255C24.918 1.34379 25.3166 1.77985 25.8079 1.77985C28.4777 1.77985 30.2201 3.75994 30.2201 6.19211C30.2201 6.68335 30.6553 7.08204 31.1475 7.08204C31.6396 7.08204 32 6.68335 32 6.19211C32 2.77746 29.3676 0 25.8079 0Z" fill="#5DADEC"/>
</svg>
